<mxfile host="app.diagrams.net" modified="2021-03-10T09:59:34.832Z" agent="5.0 (X11)" etag="rmL_8rgcrbIDLR1ELIUe" version="14.4.6" type="github" pages="2">
  <diagram id="2R1Mtc9ovGN57bQ98XRX" name="organisation">
    <mxGraphModel dx="1822" dy="773" grid="1" gridSize="10" guides="1" tooltips="1" connect="1" arrows="1" fold="1" page="0" pageScale="1" pageWidth="827" pageHeight="1169" math="0" shadow="0">
      <root>
        <mxCell id="0" />
        <mxCell id="1" parent="0" />
        <mxCell id="iVxWJCc79qQbHlNXq3jS-2" value="" style="rounded=0;whiteSpace=wrap;html=1;dashed=1;fillColor=none;gradientColor=#ffffff;" parent="1" vertex="1">
          <mxGeometry x="90" y="570" width="200" height="160" as="geometry" />
        </mxCell>
        <mxCell id="iVxWJCc79qQbHlNXq3jS-3" value="services" style="shape=umlFrame;whiteSpace=wrap;html=1;width=90;height=35;" parent="1" vertex="1">
          <mxGeometry x="50" y="25" width="730" height="345" as="geometry" />
        </mxCell>
        <mxCell id="iVxWJCc79qQbHlNXq3jS-4" value="data" style="shape=umlFrame;whiteSpace=wrap;html=1;" parent="1" vertex="1">
          <mxGeometry x="850" y="20" width="650" height="350" as="geometry" />
        </mxCell>
        <mxCell id="iVxWJCc79qQbHlNXq3jS-5" value="sirius-web-graphql" style="verticalAlign=top;align=left;spacingTop=8;spacingLeft=2;spacingRight=12;shape=cube;size=10;direction=south;fontStyle=4;html=1;comic=0;fillColor=#dae8fc;strokeColor=#6c8ebf;" parent="1" vertex="1">
          <mxGeometry x="100" y="130" width="180" height="120" as="geometry" />
        </mxCell>
        <mxCell id="iVxWJCc79qQbHlNXq3jS-6" value="sirius-web-services-api" style="verticalAlign=top;align=left;spacingTop=8;spacingLeft=2;spacingRight=12;shape=cube;size=10;direction=south;fontStyle=4;html=1;comic=0;fillColor=#dae8fc;strokeColor=#6c8ebf;" parent="1" vertex="1">
          <mxGeometry x="330" y="130" width="180" height="120" as="geometry" />
        </mxCell>
        <mxCell id="iVxWJCc79qQbHlNXq3jS-7" value="sirius-web-api" style="verticalAlign=top;align=left;spacingTop=8;spacingLeft=2;spacingRight=12;shape=cube;size=10;direction=south;fontStyle=4;html=1;comic=0;fillColor=#dae8fc;strokeColor=#6c8ebf;" parent="1" vertex="1">
          <mxGeometry x="580" y="130" width="180" height="120" as="geometry" />
        </mxCell>
        <mxCell id="iVxWJCc79qQbHlNXq3jS-8" value="ImagePathService" style="html=1;" parent="1" vertex="1">
          <mxGeometry x="600" y="280" width="120" height="50" as="geometry" />
        </mxCell>
        <mxCell id="iVxWJCc79qQbHlNXq3jS-9" value="«interface»&lt;br&gt;&lt;b&gt;IImagePathService&lt;/b&gt;" style="html=1;fillColor=#dae8fc;strokeColor=#6c8ebf;" parent="1" vertex="1">
          <mxGeometry x="600" y="170" width="120" height="50" as="geometry" />
        </mxCell>
        <mxCell id="iVxWJCc79qQbHlNXq3jS-10" value="" style="endArrow=block;dashed=1;endFill=0;endSize=12;html=1;exitX=0.5;exitY=0;exitDx=0;exitDy=0;" parent="1" source="iVxWJCc79qQbHlNXq3jS-8" target="iVxWJCc79qQbHlNXq3jS-9" edge="1">
          <mxGeometry width="160" relative="1" as="geometry">
            <mxPoint x="740" y="350" as="sourcePoint" />
            <mxPoint x="900" y="350" as="targetPoint" />
          </mxGeometry>
        </mxCell>
        <mxCell id="iVxWJCc79qQbHlNXq3jS-11" value="ProjectAccessPolicy" style="html=1;" parent="1" vertex="1">
          <mxGeometry x="350" y="280" width="130" height="50" as="geometry" />
        </mxCell>
        <mxCell id="iVxWJCc79qQbHlNXq3jS-12" value="«interface»&lt;br&gt;&lt;b&gt;IProjectAccessPolicy&lt;/b&gt;" style="html=1;fillColor=#dae8fc;strokeColor=#6c8ebf;" parent="1" vertex="1">
          <mxGeometry x="350" y="170" width="130" height="50" as="geometry" />
        </mxCell>
        <mxCell id="iVxWJCc79qQbHlNXq3jS-13" value="" style="endArrow=block;dashed=1;endFill=0;endSize=12;html=1;exitX=0.5;exitY=0;exitDx=0;exitDy=0;" parent="1" source="iVxWJCc79qQbHlNXq3jS-11" target="iVxWJCc79qQbHlNXq3jS-12" edge="1">
          <mxGeometry width="160" relative="1" as="geometry">
            <mxPoint x="460" y="350" as="sourcePoint" />
            <mxPoint x="620" y="350" as="targetPoint" />
          </mxGeometry>
        </mxCell>
        <mxCell id="iVxWJCc79qQbHlNXq3jS-14" value="ViewerProvider" style="html=1;" parent="1" vertex="1">
          <mxGeometry x="120" y="280" width="130" height="50" as="geometry" />
        </mxCell>
        <mxCell id="iVxWJCc79qQbHlNXq3jS-15" value="«interface»&lt;br&gt;&lt;b&gt;IViewerProvider&lt;/b&gt;" style="html=1;fillColor=#dae8fc;strokeColor=#6c8ebf;" parent="1" vertex="1">
          <mxGeometry x="120" y="170" width="130" height="50" as="geometry" />
        </mxCell>
        <mxCell id="iVxWJCc79qQbHlNXq3jS-16" value="" style="endArrow=block;dashed=1;endFill=0;endSize=12;html=1;exitX=0.5;exitY=0;exitDx=0;exitDy=0;" parent="1" source="iVxWJCc79qQbHlNXq3jS-14" target="iVxWJCc79qQbHlNXq3jS-15" edge="1">
          <mxGeometry width="160" relative="1" as="geometry">
            <mxPoint x="260" y="350" as="sourcePoint" />
            <mxPoint x="420" y="350" as="targetPoint" />
          </mxGeometry>
        </mxCell>
        <mxCell id="iVxWJCc79qQbHlNXq3jS-17" value="" style="shape=mxgraph.bpmn.service_task;html=1;outlineConnect=0;comic=0;fillColor=#d5e8d4;strokeColor=#82b366;" parent="1" vertex="1">
          <mxGeometry x="240" y="270" width="14" height="14" as="geometry" />
        </mxCell>
        <mxCell id="iVxWJCc79qQbHlNXq3jS-18" value="" style="shape=mxgraph.bpmn.service_task;html=1;outlineConnect=0;comic=0;fillColor=#d5e8d4;strokeColor=#82b366;" parent="1" vertex="1">
          <mxGeometry x="470" y="270" width="14" height="14" as="geometry" />
        </mxCell>
        <mxCell id="iVxWJCc79qQbHlNXq3jS-19" value="" style="shape=mxgraph.bpmn.service_task;html=1;outlineConnect=0;comic=0;fillColor=#d5e8d4;strokeColor=#82b366;" parent="1" vertex="1">
          <mxGeometry x="710" y="270" width="14" height="14" as="geometry" />
        </mxCell>
        <mxCell id="iVxWJCc79qQbHlNXq3jS-20" value="sirius-web-persistence" style="verticalAlign=top;align=left;spacingTop=8;spacingLeft=2;spacingRight=12;shape=cube;size=10;direction=south;fontStyle=4;html=1;comic=0;fillColor=#dae8fc;strokeColor=#6c8ebf;" parent="1" vertex="1">
          <mxGeometry x="910" y="60" width="550" height="180" as="geometry" />
        </mxCell>
        <mxCell id="iVxWJCc79qQbHlNXq3jS-21" style="edgeStyle=orthogonalEdgeStyle;rounded=0;orthogonalLoop=1;jettySize=auto;html=1;exitX=0.5;exitY=1;exitDx=0;exitDy=0;" parent="1" source="iVxWJCc79qQbHlNXq3jS-22" target="iVxWJCc79qQbHlNXq3jS-43" edge="1">
          <mxGeometry relative="1" as="geometry" />
        </mxCell>
        <mxCell id="iVxWJCc79qQbHlNXq3jS-22" value="«interface»&lt;br&gt;&lt;b&gt;IAccountRepository&lt;/b&gt;" style="html=1;comic=0;fillColor=#dae8fc;strokeColor=#6c8ebf;" parent="1" vertex="1">
          <mxGeometry x="1270" y="165" width="160" height="50" as="geometry" />
        </mxCell>
        <mxCell id="iVxWJCc79qQbHlNXq3jS-23" value="«interface»&lt;br&gt;&lt;b&gt;IIdMappingRepository&lt;/b&gt;" style="html=1;comic=0;fillColor=#dae8fc;strokeColor=#6c8ebf;" parent="1" vertex="1">
          <mxGeometry x="1100" y="100" width="160" height="50" as="geometry" />
        </mxCell>
        <mxCell id="iVxWJCc79qQbHlNXq3jS-24" value="«interface»&lt;br&gt;&lt;b&gt;IDocumentRepository&lt;/b&gt;" style="html=1;comic=0;fillColor=#dae8fc;strokeColor=#6c8ebf;" parent="1" vertex="1">
          <mxGeometry x="930" y="165" width="160" height="50" as="geometry" />
        </mxCell>
        <mxCell id="iVxWJCc79qQbHlNXq3jS-25" value="«interface»&lt;br&gt;&lt;b&gt;IModelRepository&lt;/b&gt;" style="html=1;comic=0;fillColor=#dae8fc;strokeColor=#6c8ebf;" parent="1" vertex="1">
          <mxGeometry x="930" y="100" width="160" height="50" as="geometry" />
        </mxCell>
        <mxCell id="iVxWJCc79qQbHlNXq3jS-26" value="«interface»&lt;br&gt;&lt;b&gt;IProjectRepository&lt;/b&gt;" style="html=1;comic=0;fillColor=#dae8fc;strokeColor=#6c8ebf;" parent="1" vertex="1">
          <mxGeometry x="1270" y="100" width="160" height="50" as="geometry" />
        </mxCell>
        <mxCell id="iVxWJCc79qQbHlNXq3jS-27" value="«interface»&lt;br&gt;&lt;b&gt;IRepresentationRepository&lt;/b&gt;" style="html=1;comic=0;fillColor=#dae8fc;strokeColor=#6c8ebf;" parent="1" vertex="1">
          <mxGeometry x="1100" y="165" width="160" height="50" as="geometry" />
        </mxCell>
        <mxCell id="iVxWJCc79qQbHlNXq3jS-28" value="&lt;div&gt;sirius-web-diagram-services&lt;/div&gt;" style="verticalAlign=top;align=left;spacingTop=8;spacingLeft=2;spacingRight=12;shape=cube;size=10;direction=south;fontStyle=4;html=1;comic=0;" parent="1" vertex="1">
          <mxGeometry x="1620" y="190" width="180" height="60" as="geometry" />
        </mxCell>
        <mxCell id="iVxWJCc79qQbHlNXq3jS-29" value="sirius-web-emf" style="verticalAlign=top;align=left;spacingTop=8;spacingLeft=2;spacingRight=12;shape=cube;size=10;direction=south;fontStyle=4;html=1;comic=0;" parent="1" vertex="1">
          <mxGeometry x="1620" y="260" width="180" height="60" as="geometry" />
        </mxCell>
        <mxCell id="iVxWJCc79qQbHlNXq3jS-30" value="&lt;div&gt;siriys-web-collaborative-forms&lt;/div&gt;" style="verticalAlign=top;align=left;spacingTop=8;spacingLeft=2;spacingRight=12;shape=cube;size=10;direction=south;fontStyle=4;html=1;comic=0;" parent="1" vertex="1">
          <mxGeometry x="1620" y="330" width="180" height="60" as="geometry" />
        </mxCell>
        <mxCell id="iVxWJCc79qQbHlNXq3jS-31" value="" style="shape=datastore;whiteSpace=wrap;html=1;comic=0;fillColor=#d5e8d4;strokeColor=#82b366;resizeWidth=1;fixDash=0;treeFolding=0;resizeHeight=1;" parent="1" vertex="1">
          <mxGeometry x="1080" y="100" width="10" height="10" as="geometry" />
        </mxCell>
        <mxCell id="iVxWJCc79qQbHlNXq3jS-32" value="" style="shape=datastore;whiteSpace=wrap;html=1;comic=0;fillColor=#d5e8d4;strokeColor=#82b366;resizeWidth=1;fixDash=0;treeFolding=0;resizeHeight=1;" parent="1" vertex="1">
          <mxGeometry x="1250" y="100" width="10" height="10" as="geometry" />
        </mxCell>
        <mxCell id="iVxWJCc79qQbHlNXq3jS-33" value="" style="shape=datastore;whiteSpace=wrap;html=1;comic=0;fillColor=#d5e8d4;strokeColor=#82b366;resizeWidth=1;fixDash=0;treeFolding=0;resizeHeight=1;" parent="1" vertex="1">
          <mxGeometry x="1420" y="100" width="10" height="10" as="geometry" />
        </mxCell>
        <mxCell id="iVxWJCc79qQbHlNXq3jS-34" value="" style="shape=datastore;whiteSpace=wrap;html=1;comic=0;fillColor=#d5e8d4;strokeColor=#82b366;resizeWidth=1;fixDash=0;treeFolding=0;resizeHeight=1;" parent="1" vertex="1">
          <mxGeometry x="1080" y="165" width="10" height="10" as="geometry" />
        </mxCell>
        <mxCell id="iVxWJCc79qQbHlNXq3jS-35" value="" style="shape=datastore;whiteSpace=wrap;html=1;comic=0;fillColor=#d5e8d4;strokeColor=#82b366;resizeWidth=1;fixDash=0;treeFolding=0;resizeHeight=1;" parent="1" vertex="1">
          <mxGeometry x="1250" y="165" width="10" height="10" as="geometry" />
        </mxCell>
        <mxCell id="iVxWJCc79qQbHlNXq3jS-36" value="" style="shape=datastore;whiteSpace=wrap;html=1;comic=0;fillColor=#d5e8d4;strokeColor=#82b366;resizeWidth=1;fixDash=0;treeFolding=0;resizeHeight=1;" parent="1" vertex="1">
          <mxGeometry x="1420" y="165" width="10" height="10" as="geometry" />
        </mxCell>
        <mxCell id="iVxWJCc79qQbHlNXq3jS-37" value="&lt;div&gt;configuration&lt;/div&gt;" style="shape=umlFrame;whiteSpace=wrap;html=1;width=80;height=30;" parent="1" vertex="1">
          <mxGeometry x="850" y="400" width="650" height="400" as="geometry" />
        </mxCell>
        <mxCell id="iVxWJCc79qQbHlNXq3jS-38" value="" style="edgeStyle=orthogonalEdgeStyle;rounded=0;orthogonalLoop=1;jettySize=auto;html=1;" parent="1" source="iVxWJCc79qQbHlNXq3jS-39" target="iVxWJCc79qQbHlNXq3jS-40" edge="1">
          <mxGeometry relative="1" as="geometry" />
        </mxCell>
        <mxCell id="iVxWJCc79qQbHlNXq3jS-39" value="&lt;div&gt;Monitoring&lt;br&gt;&lt;/div&gt;&lt;div&gt;Configuration&lt;br&gt;&lt;/div&gt;" style="rectangle;whiteSpace=wrap;html=1;" parent="1" vertex="1">
          <mxGeometry x="950" y="420" width="120" height="60" as="geometry" />
        </mxCell>
        <mxCell id="iVxWJCc79qQbHlNXq3jS-40" value="&lt;div&gt;SimpleMeterRegistry&lt;/div&gt;" style="ellipse;whiteSpace=wrap;html=1;" parent="1" vertex="1">
          <mxGeometry x="950" y="500" width="120" height="50" as="geometry" />
        </mxCell>
        <mxCell id="iVxWJCc79qQbHlNXq3jS-41" value="JPA Configuration" style="rectangle;whiteSpace=wrap;html=1;" parent="1" vertex="1">
          <mxGeometry x="1120" y="420" width="120" height="60" as="geometry" />
        </mxCell>
        <mxCell id="iVxWJCc79qQbHlNXq3jS-42" value="Scan" style="endArrow=open;endSize=12;dashed=1;html=1;exitX=0.5;exitY=0;exitDx=0;exitDy=0;entryX=0;entryY=0;entryDx=180;entryDy=280;entryPerimeter=0;" parent="1" source="iVxWJCc79qQbHlNXq3jS-41" target="iVxWJCc79qQbHlNXq3jS-20" edge="1">
          <mxGeometry width="160" relative="1" as="geometry">
            <mxPoint x="600" y="400" as="sourcePoint" />
            <mxPoint x="760" y="400" as="targetPoint" />
          </mxGeometry>
        </mxCell>
        <mxCell id="iVxWJCc79qQbHlNXq3jS-43" value="Spring Web Security Configuration" style="rectangle;whiteSpace=wrap;html=1;" parent="1" vertex="1">
          <mxGeometry x="1290" y="420" width="120" height="60" as="geometry" />
        </mxCell>
        <mxCell id="iVxWJCc79qQbHlNXq3jS-44" value="" style="endArrow=open;endFill=1;endSize=12;html=1;" parent="1" edge="1">
          <mxGeometry width="160" relative="1" as="geometry">
            <mxPoint x="1040" y="400" as="sourcePoint" />
            <mxPoint x="1200" y="400" as="targetPoint" />
          </mxGeometry>
        </mxCell>
        <mxCell id="iVxWJCc79qQbHlNXq3jS-45" value="TestSampleApplication" style="rounded=1;whiteSpace=wrap;html=1;absoluteArcSize=1;arcSize=14;strokeWidth=2;gradientColor=none;" parent="1" vertex="1">
          <mxGeometry x="-150" y="550" width="170" height="100" as="geometry" />
        </mxCell>
        <mxCell id="iVxWJCc79qQbHlNXq3jS-46" value="sirius-components" style="shape=umlFrame;whiteSpace=wrap;html=1;gradientColor=none;width=130;height=30;" parent="1" vertex="1">
          <mxGeometry x="70" y="500" width="640" height="270" as="geometry" />
        </mxCell>
        <mxCell id="iVxWJCc79qQbHlNXq3jS-47" value="sirius-web-spring" style="verticalAlign=top;align=left;spacingTop=8;spacingLeft=2;spacingRight=12;shape=cube;size=10;direction=south;fontStyle=4;html=1;fillColor=#dae8fc;strokeColor=#6c8ebf;" parent="1" vertex="1">
          <mxGeometry x="100" y="600" width="180" height="50" as="geometry" />
        </mxCell>
        <mxCell id="iVxWJCc79qQbHlNXq3jS-48" value="sirius-web-services" style="verticalAlign=top;align=left;spacingTop=8;spacingLeft=2;spacingRight=12;shape=cube;size=10;direction=south;fontStyle=4;html=1;fillColor=#dae8fc;strokeColor=#6c8ebf;" parent="1" vertex="1">
          <mxGeometry x="500" y="607.5" width="180" height="50" as="geometry" />
        </mxCell>
        <mxCell id="iVxWJCc79qQbHlNXq3jS-49" value="sirius-web-spring-graphql" style="verticalAlign=top;align=left;spacingTop=8;spacingLeft=2;spacingRight=12;shape=cube;size=10;direction=south;fontStyle=4;html=1;fillColor=#dae8fc;strokeColor=#6c8ebf;" parent="1" vertex="1">
          <mxGeometry x="97.5" y="660" width="175" height="50" as="geometry" />
        </mxCell>
        <mxCell id="iVxWJCc79qQbHlNXq3jS-50" value="sirius-web-diagram-services" style="verticalAlign=top;align=left;spacingTop=8;spacingLeft=2;spacingRight=12;shape=cube;size=10;direction=south;fontStyle=4;html=1;fillColor=#dae8fc;strokeColor=#6c8ebf;" parent="1" vertex="1">
          <mxGeometry x="300" y="670" width="180" height="50" as="geometry" />
        </mxCell>
        <mxCell id="iVxWJCc79qQbHlNXq3jS-51" value="Scan" style="endArrow=open;endSize=12;dashed=1;html=1;exitX=1;exitY=0.5;exitDx=0;exitDy=0;" parent="1" source="iVxWJCc79qQbHlNXq3jS-45" target="iVxWJCc79qQbHlNXq3jS-46" edge="1">
          <mxGeometry width="160" relative="1" as="geometry">
            <mxPoint x="30" y="610" as="sourcePoint" />
            <mxPoint x="380" y="450" as="targetPoint" />
          </mxGeometry>
        </mxCell>
        <mxCell id="iVxWJCc79qQbHlNXq3jS-52" value="FlowPackage" style="ellipse;whiteSpace=wrap;html=1;" parent="1" vertex="1">
          <mxGeometry x="1240" y="585" width="120" height="55" as="geometry" />
        </mxCell>
        <mxCell id="iVxWJCc79qQbHlNXq3jS-53" value="&lt;div&gt;FlowItemProvider&lt;/div&gt;&lt;div&gt;AdapterFactory&lt;/div&gt;" style="ellipse;whiteSpace=wrap;html=1;" parent="1" vertex="1">
          <mxGeometry x="1120" y="585" width="120" height="55" as="geometry" />
        </mxCell>
        <mxCell id="iVxWJCc79qQbHlNXq3jS-54" value="" style="endArrow=classic;html=1;entryX=0.5;entryY=0;entryDx=0;entryDy=0;" parent="1" target="iVxWJCc79qQbHlNXq3jS-53" edge="1">
          <mxGeometry width="50" height="50" relative="1" as="geometry">
            <mxPoint x="1300" y="555" as="sourcePoint" />
            <mxPoint x="1640" y="585" as="targetPoint" />
          </mxGeometry>
        </mxCell>
        <mxCell id="iVxWJCc79qQbHlNXq3jS-55" value="" style="edgeStyle=orthogonalEdgeStyle;rounded=0;orthogonalLoop=1;jettySize=auto;html=1;" parent="1" source="iVxWJCc79qQbHlNXq3jS-56" target="iVxWJCc79qQbHlNXq3jS-52" edge="1">
          <mxGeometry relative="1" as="geometry" />
        </mxCell>
        <mxCell id="iVxWJCc79qQbHlNXq3jS-56" value="&lt;div&gt;SampleEMF&lt;/div&gt;&lt;div&gt;Configuration&lt;br&gt;&lt;/div&gt;" style="rectangle;whiteSpace=wrap;html=1;" parent="1" vertex="1">
          <mxGeometry x="1240" y="500" width="120" height="55" as="geometry" />
        </mxCell>
        <mxCell id="iVxWJCc79qQbHlNXq3jS-57" value="" style="endArrow=classic;html=1;entryX=0.5;entryY=0;entryDx=0;entryDy=0;" parent="1" target="iVxWJCc79qQbHlNXq3jS-58" edge="1">
          <mxGeometry width="50" height="50" relative="1" as="geometry">
            <mxPoint x="1300" y="555" as="sourcePoint" />
            <mxPoint x="1640" y="585" as="targetPoint" />
          </mxGeometry>
        </mxCell>
        <mxCell id="iVxWJCc79qQbHlNXq3jS-58" value="LabelSiriusProvider" style="ellipse;whiteSpace=wrap;html=1;fillColor=#dae8fc;strokeColor=#6c8ebf;" parent="1" vertex="1">
          <mxGeometry x="1360" y="585" width="120" height="55" as="geometry" />
        </mxCell>
        <mxCell id="iVxWJCc79qQbHlNXq3jS-59" value="sirius-web-compatibility" style="verticalAlign=top;align=left;spacingTop=8;spacingLeft=2;spacingRight=12;shape=cube;size=10;direction=south;fontStyle=4;html=1;comic=0;fillColor=#dae8fc;strokeColor=#6c8ebf;" parent="1" vertex="1">
          <mxGeometry x="890" y="567.5" width="180" height="120" as="geometry" />
        </mxCell>
        <mxCell id="iVxWJCc79qQbHlNXq3jS-60" value="«interface»&lt;br&gt;&lt;b&gt;ISiriusConfiguration&lt;/b&gt;" style="html=1;fillColor=#dae8fc;strokeColor=#6c8ebf;" parent="1" vertex="1">
          <mxGeometry x="910" y="607.5" width="120" height="50" as="geometry" />
        </mxCell>
        <mxCell id="iVxWJCc79qQbHlNXq3jS-61" value="Sample Sirius Configuration" style="rectangle;whiteSpace=wrap;html=1;" parent="1" vertex="1">
          <mxGeometry x="910" y="710" width="120" height="55" as="geometry" />
        </mxCell>
        <mxCell id="iVxWJCc79qQbHlNXq3jS-62" value="" style="endArrow=block;dashed=1;endFill=0;endSize=12;html=1;" parent="1" source="iVxWJCc79qQbHlNXq3jS-61" edge="1">
          <mxGeometry width="160" relative="1" as="geometry">
            <mxPoint x="820" y="530" as="sourcePoint" />
            <mxPoint x="971" y="660" as="targetPoint" />
          </mxGeometry>
        </mxCell>
        <mxCell id="iVxWJCc79qQbHlNXq3jS-63" value="Spring Web MVC Configurer" style="rectangle;whiteSpace=wrap;html=1;" parent="1" vertex="1">
          <mxGeometry x="1240" y="687.5" width="120" height="55" as="geometry" />
        </mxCell>
        <mxCell id="iVxWJCc79qQbHlNXq3jS-64" value="sirius-web-graphql" style="verticalAlign=top;align=left;spacingTop=8;spacingLeft=2;spacingRight=12;shape=cube;size=10;direction=south;fontStyle=4;html=1;fillColor=#dae8fc;strokeColor=#6c8ebf;" parent="1" vertex="1">
          <mxGeometry x="410" y="535" width="180" height="50" as="geometry" />
        </mxCell>
        <mxCell id="iVxWJCc79qQbHlNXq3jS-65" value="sirius-web-graphql-schemas" style="verticalAlign=top;align=left;spacingTop=8;spacingLeft=2;spacingRight=12;shape=cube;size=10;direction=south;fontStyle=4;html=1;fillColor=#dae8fc;strokeColor=#6c8ebf;" parent="1" vertex="1">
          <mxGeometry x="500" y="670" width="180" height="50" as="geometry" />
        </mxCell>
        <mxCell id="iVxWJCc79qQbHlNXq3jS-66" value="sirius-web-diagram-layout" style="verticalAlign=top;align=left;spacingTop=8;spacingLeft=2;spacingRight=12;shape=cube;size=10;direction=south;fontStyle=4;html=1;fillColor=#dae8fc;strokeColor=#6c8ebf;" parent="1" vertex="1">
          <mxGeometry x="300" y="607.5" width="180" height="50" as="geometry" />
        </mxCell>
        <mxCell id="iVxWJCc79qQbHlNXq3jS-67" value="Controllers" style="text;html=1;strokeColor=none;fillColor=none;align=center;verticalAlign=middle;whiteSpace=wrap;rounded=0;dashed=1;" parent="1" vertex="1">
          <mxGeometry x="90" y="570" width="80" height="20" as="geometry" />
        </mxCell>
      </root>
    </mxGraphModel>
  </diagram>
  <diagram id="3-h0cDs4UhyIgg0XL_a0" name="AQL_interpreter_dependancies">
    <mxGraphModel dx="1422" dy="773" grid="1" gridSize="10" guides="1" tooltips="1" connect="1" arrows="1" fold="1" page="0" pageScale="1" pageWidth="827" pageHeight="1169" background="none" math="0" shadow="0">
      <root>
        <mxCell id="dofqXAE8lk_pSGYmfNcJ-0" />
        <mxCell id="dofqXAE8lk_pSGYmfNcJ-1" parent="dofqXAE8lk_pSGYmfNcJ-0" />
        <mxCell id="dHZTr1Qny3cI7_PEFA6j-9" value="sirius-web-interpreter" style="verticalAlign=top;align=left;spacingTop=8;spacingLeft=2;spacingRight=12;shape=cube;size=10;direction=south;fontStyle=4;html=1;fillColor=#dae8fc;strokeColor=#6c8ebf;" parent="dofqXAE8lk_pSGYmfNcJ-1" vertex="1">
          <mxGeometry x="430" y="290" width="210" height="110" as="geometry" />
        </mxCell>
        <mxCell id="dHZTr1Qny3cI7_PEFA6j-8" value="sirius-web-emf" style="verticalAlign=top;align=left;spacingTop=8;spacingLeft=2;spacingRight=12;shape=cube;size=10;direction=south;fontStyle=4;html=1;fillColor=#dae8fc;strokeColor=#6c8ebf;" parent="dofqXAE8lk_pSGYmfNcJ-1" vertex="1">
          <mxGeometry x="50" y="195" width="300" height="320" as="geometry" />
        </mxCell>
        <mxCell id="dHZTr1Qny3cI7_PEFA6j-0" value="AQLInterpreter" style="html=1;" parent="dofqXAE8lk_pSGYmfNcJ-1" vertex="1">
          <mxGeometry x="480" y="330" width="110" height="50" as="geometry" />
        </mxCell>
        <mxCell id="dHZTr1Qny3cI7_PEFA6j-1" value="AQLInterpreterFactory" style="html=1;" parent="dofqXAE8lk_pSGYmfNcJ-1" vertex="1">
          <mxGeometry x="100" y="330" width="210" height="50" as="geometry" />
        </mxCell>
        <mxCell id="dHZTr1Qny3cI7_PEFA6j-2" value="Produce" style="endArrow=open;endSize=12;dashed=1;html=1;entryX=0;entryY=0.5;entryDx=0;entryDy=0;" parent="dofqXAE8lk_pSGYmfNcJ-1" source="dHZTr1Qny3cI7_PEFA6j-1" target="dHZTr1Qny3cI7_PEFA6j-0" edge="1">
          <mxGeometry width="160" relative="1" as="geometry">
            <mxPoint x="330" y="380" as="sourcePoint" />
            <mxPoint x="490" y="380" as="targetPoint" />
          </mxGeometry>
        </mxCell>
        <mxCell id="dHZTr1Qny3cI7_PEFA6j-4" value="«interface»&lt;br&gt;&lt;b&gt;IAQLInterpreterFactory&lt;/b&gt;" style="html=1;" parent="dofqXAE8lk_pSGYmfNcJ-1" vertex="1">
          <mxGeometry x="100" y="230" width="210" height="50" as="geometry" />
        </mxCell>
        <mxCell id="dHZTr1Qny3cI7_PEFA6j-5" value="" style="endArrow=block;dashed=1;endFill=0;endSize=12;html=1;exitX=0.5;exitY=0;exitDx=0;exitDy=0;entryX=0.5;entryY=1;entryDx=0;entryDy=0;" parent="dofqXAE8lk_pSGYmfNcJ-1" source="dHZTr1Qny3cI7_PEFA6j-1" target="dHZTr1Qny3cI7_PEFA6j-4" edge="1">
          <mxGeometry width="160" relative="1" as="geometry">
            <mxPoint x="330" y="390" as="sourcePoint" />
            <mxPoint x="490" y="390" as="targetPoint" />
          </mxGeometry>
        </mxCell>
        <mxCell id="dHZTr1Qny3cI7_PEFA6j-6" value="ViewExtensionDescriptionConverter" style="html=1;" parent="dofqXAE8lk_pSGYmfNcJ-1" vertex="1">
          <mxGeometry x="100" y="430" width="210" height="50" as="geometry" />
        </mxCell>
        <mxCell id="dHZTr1Qny3cI7_PEFA6j-7" value="" style="endArrow=open;endFill=1;endSize=12;html=1;exitX=0.5;exitY=1;exitDx=0;exitDy=0;entryX=0.5;entryY=0;entryDx=0;entryDy=0;" parent="dofqXAE8lk_pSGYmfNcJ-1" source="dHZTr1Qny3cI7_PEFA6j-1" target="dHZTr1Qny3cI7_PEFA6j-6" edge="1">
          <mxGeometry width="160" relative="1" as="geometry">
            <mxPoint x="330" y="390" as="sourcePoint" />
            <mxPoint x="490" y="390" as="targetPoint" />
          </mxGeometry>
        </mxCell>
        <mxCell id="4CUKQFG70tJeOBjzJxV9-0" value="sirius-web-interpreter" style="verticalAlign=top;align=left;spacingTop=8;spacingLeft=2;spacingRight=12;shape=cube;size=10;direction=south;fontStyle=4;html=1;fillColor=#dae8fc;strokeColor=#6c8ebf;" vertex="1" parent="dofqXAE8lk_pSGYmfNcJ-1">
          <mxGeometry x="1270" y="160" width="570" height="390" as="geometry" />
        </mxCell>
        <mxCell id="4CUKQFG70tJeOBjzJxV9-1" value="sirius-web-emf" style="verticalAlign=top;align=left;spacingTop=8;spacingLeft=2;spacingRight=12;shape=cube;size=10;direction=south;fontStyle=4;html=1;fillColor=#dae8fc;strokeColor=#6c8ebf;" vertex="1" parent="dofqXAE8lk_pSGYmfNcJ-1">
          <mxGeometry x="870" y="234" width="340" height="320" as="geometry" />
        </mxCell>
        <mxCell id="4CUKQFG70tJeOBjzJxV9-5" value="«interface»&lt;br&gt;&lt;b&gt;IAQLInterpreterFactory&lt;/b&gt;" style="html=1;" vertex="1" parent="dofqXAE8lk_pSGYmfNcJ-1">
          <mxGeometry x="938.75" y="269" width="210" height="50" as="geometry" />
        </mxCell>
        <mxCell id="4CUKQFG70tJeOBjzJxV9-7" value="ViewExtensionDescriptionConverter" style="html=1;" vertex="1" parent="dofqXAE8lk_pSGYmfNcJ-1">
          <mxGeometry x="935" y="465" width="210" height="50" as="geometry" />
        </mxCell>
        <mxCell id="4CUKQFG70tJeOBjzJxV9-9" value="AQLInterpreterAPI" style="swimlane;fontStyle=1;align=center;verticalAlign=top;childLayout=stackLayout;horizontal=1;startSize=26;horizontalStack=0;resizeParent=1;resizeParentMax=0;resizeLast=0;collapsible=1;marginBottom=0;" vertex="1" parent="dofqXAE8lk_pSGYmfNcJ-1">
          <mxGeometry x="1360" y="346" width="410" height="74" as="geometry" />
        </mxCell>
        <mxCell id="4CUKQFG70tJeOBjzJxV9-11" value="" style="line;strokeWidth=1;fillColor=none;align=left;verticalAlign=middle;spacingTop=-1;spacingLeft=3;spacingRight=3;rotatable=0;labelPosition=right;points=[];portConstraint=eastwest;" vertex="1" parent="4CUKQFG70tJeOBjzJxV9-9">
          <mxGeometry y="26" width="410" height="8" as="geometry" />
        </mxCell>
        <mxCell id="4CUKQFG70tJeOBjzJxV9-12" value="+ initializeUser(variables, expressionBody): AQLEntry&#xa;+ evaluateExpression(variables, expressionBody, aqlEntry): Result" style="text;strokeColor=none;fillColor=none;align=left;verticalAlign=top;spacingLeft=4;spacingRight=4;overflow=hidden;rotatable=0;points=[[0,0.5],[1,0.5]];portConstraint=eastwest;" vertex="1" parent="4CUKQFG70tJeOBjzJxV9-9">
          <mxGeometry y="34" width="410" height="40" as="geometry" />
        </mxCell>
        <mxCell id="4CUKQFG70tJeOBjzJxV9-13" value="AQLInterpreter(Service)" style="swimlane;fontStyle=1;align=center;verticalAlign=top;childLayout=stackLayout;horizontal=1;startSize=26;horizontalStack=0;resizeParent=1;resizeParentMax=0;resizeLast=0;collapsible=1;marginBottom=0;" vertex="1" parent="dofqXAE8lk_pSGYmfNcJ-1">
          <mxGeometry x="1360" y="225" width="410" height="60" as="geometry" />
        </mxCell>
        <mxCell id="4CUKQFG70tJeOBjzJxV9-14" value="- elements: Map&lt;AQLEntry, Pair&lt;LoadingCache, IQueryEnvironment&gt;&gt;" style="text;strokeColor=none;fillColor=none;align=left;verticalAlign=top;spacingLeft=4;spacingRight=4;overflow=hidden;rotatable=0;points=[[0,0.5],[1,0.5]];portConstraint=eastwest;" vertex="1" parent="4CUKQFG70tJeOBjzJxV9-13">
          <mxGeometry y="26" width="410" height="26" as="geometry" />
        </mxCell>
        <mxCell id="4CUKQFG70tJeOBjzJxV9-15" value="" style="line;strokeWidth=1;fillColor=none;align=left;verticalAlign=middle;spacingTop=-1;spacingLeft=3;spacingRight=3;rotatable=0;labelPosition=right;points=[];portConstraint=eastwest;" vertex="1" parent="4CUKQFG70tJeOBjzJxV9-13">
          <mxGeometry y="52" width="410" height="8" as="geometry" />
        </mxCell>
        <mxCell id="4CUKQFG70tJeOBjzJxV9-17" value="" style="endArrow=open;endFill=1;endSize=12;html=1;exitX=0.5;exitY=1;exitDx=0;exitDy=0;" edge="1" parent="dofqXAE8lk_pSGYmfNcJ-1" source="4CUKQFG70tJeOBjzJxV9-13" target="4CUKQFG70tJeOBjzJxV9-9">
          <mxGeometry width="160" relative="1" as="geometry">
            <mxPoint x="1210" y="480" as="sourcePoint" />
            <mxPoint x="1370" y="480" as="targetPoint" />
          </mxGeometry>
        </mxCell>
        <mxCell id="4CUKQFG70tJeOBjzJxV9-18" value="" style="shape=message;html=1;whiteSpace=wrap;html=1;outlineConnect=0;fillColor=#d5e8d4;strokeColor=#82b366;" vertex="1" parent="dofqXAE8lk_pSGYmfNcJ-1">
          <mxGeometry x="1750" y="340" width="30" height="20" as="geometry" />
        </mxCell>
        <mxCell id="4CUKQFG70tJeOBjzJxV9-19" value="" style="shape=mxgraph.bpmn.service_task;html=1;outlineConnect=0;fillColor=#d5e8d4;strokeColor=#82b366;" vertex="1" parent="dofqXAE8lk_pSGYmfNcJ-1">
          <mxGeometry x="1750" y="210" width="30" height="24" as="geometry" />
        </mxCell>
        <mxCell id="4CUKQFG70tJeOBjzJxV9-20" value="AQLEntry" style="html=1;" vertex="1" parent="dofqXAE8lk_pSGYmfNcJ-1">
          <mxGeometry x="1510" y="440" width="110" height="50" as="geometry" />
        </mxCell>
        <mxCell id="4CUKQFG70tJeOBjzJxV9-21" value="AQLInterpreterFactory" style="swimlane;fontStyle=1;align=center;verticalAlign=top;childLayout=stackLayout;horizontal=1;startSize=26;horizontalStack=0;resizeParent=1;resizeParentMax=0;resizeLast=0;collapsible=1;marginBottom=0;" vertex="1" parent="dofqXAE8lk_pSGYmfNcJ-1">
          <mxGeometry x="907.5" y="343" width="272.5" height="80" as="geometry" />
        </mxCell>
        <mxCell id="4CUKQFG70tJeOBjzJxV9-23" value="" style="line;strokeWidth=1;fillColor=none;align=left;verticalAlign=middle;spacingTop=-1;spacingLeft=3;spacingRight=3;rotatable=0;labelPosition=right;points=[];portConstraint=eastwest;" vertex="1" parent="4CUKQFG70tJeOBjzJxV9-21">
          <mxGeometry y="26" width="272.5" height="8" as="geometry" />
        </mxCell>
        <mxCell id="4CUKQFG70tJeOBjzJxV9-24" value="+ create(diagramDescription): AQLEntry&#xa;+ create(viewExtensionDescription): AQLEntry&#xa;" style="text;strokeColor=none;fillColor=none;align=left;verticalAlign=top;spacingLeft=4;spacingRight=4;overflow=hidden;rotatable=0;points=[[0,0.5],[1,0.5]];portConstraint=eastwest;" vertex="1" parent="4CUKQFG70tJeOBjzJxV9-21">
          <mxGeometry y="34" width="272.5" height="46" as="geometry" />
        </mxCell>
        <mxCell id="4CUKQFG70tJeOBjzJxV9-26" value="" style="endArrow=block;dashed=1;endFill=0;endSize=12;html=1;exitX=0.5;exitY=0;exitDx=0;exitDy=0;" edge="1" parent="dofqXAE8lk_pSGYmfNcJ-1" source="4CUKQFG70tJeOBjzJxV9-21" target="4CUKQFG70tJeOBjzJxV9-5">
          <mxGeometry width="160" relative="1" as="geometry">
            <mxPoint x="960" y="450" as="sourcePoint" />
            <mxPoint x="1120" y="450" as="targetPoint" />
          </mxGeometry>
        </mxCell>
        <mxCell id="4CUKQFG70tJeOBjzJxV9-28" value="" style="endArrow=open;endFill=1;endSize=12;html=1;exitX=0.486;exitY=1.022;exitDx=0;exitDy=0;exitPerimeter=0;entryX=0.5;entryY=0;entryDx=0;entryDy=0;" edge="1" parent="dofqXAE8lk_pSGYmfNcJ-1" source="4CUKQFG70tJeOBjzJxV9-24" target="4CUKQFG70tJeOBjzJxV9-7">
          <mxGeometry width="160" relative="1" as="geometry">
            <mxPoint x="960" y="450" as="sourcePoint" />
            <mxPoint x="1120" y="450" as="targetPoint" />
          </mxGeometry>
        </mxCell>
        <mxCell id="4CUKQFG70tJeOBjzJxV9-29" value="" style="endArrow=open;endFill=1;endSize=12;html=1;exitX=0;exitY=0.5;exitDx=0;exitDy=0;dashed=1;" edge="1" parent="dofqXAE8lk_pSGYmfNcJ-1" source="4CUKQFG70tJeOBjzJxV9-12" target="4CUKQFG70tJeOBjzJxV9-24">
          <mxGeometry width="160" relative="1" as="geometry">
            <mxPoint x="870" y="340" as="sourcePoint" />
            <mxPoint x="1030" y="340" as="targetPoint" />
          </mxGeometry>
        </mxCell>
        <mxCell id="4CUKQFG70tJeOBjzJxV9-30" value="&lt;div&gt;Produces&lt;/div&gt;" style="endArrow=open;endSize=12;dashed=1;html=1;entryX=0;entryY=0.5;entryDx=0;entryDy=0;" edge="1" parent="dofqXAE8lk_pSGYmfNcJ-1" source="4CUKQFG70tJeOBjzJxV9-24" target="4CUKQFG70tJeOBjzJxV9-20">
          <mxGeometry width="160" relative="1" as="geometry">
            <mxPoint x="870" y="340" as="sourcePoint" />
            <mxPoint x="1030" y="340" as="targetPoint" />
          </mxGeometry>
        </mxCell>
      </root>
    </mxGraphModel>
  </diagram>
</mxfile>
